<?xml version="1.0" encoding="UTF-8"?>
<svg id="Layer_2" data-name="Layer 2" xmlns="http://www.w3.org/2000/svg" viewBox="0 0 182.64 200.75">
  <g id="Layer_1-2" data-name="Layer 1">
    <g>
      <path d="M122.87,49.38c-4.67-11.61-4.7-41.09,7.51-47.71,12.18-6.6,15,8.2,10.03,11.28-2.29,1.42-5.76.12-7.84,1.9-5.1,4.39-3.96,32.31-.82,33.03l11.23-.14c1.96-13.12,15.5-36.26,30.57-34.92,10.62.95,9.15,15.89-.77,14.83-5.42-.58-4.33-5.71-11.11,1.31-5.04,5.21-7.59,13.54-9.62,20.34,39.54,13.32,41.52,68.17,1.5,82.46,2.56,52.57-65.94,86.35-107.87,57.33l-26.48,11.64c-2.25-2.48,10.68-26.01,10.98-30.55.16-2.49-2.6-6.37-2.99-9.91-1.33-12.07,1.18-24.86,6.14-35.84l10.84-17.63c-16.41-.35-41.38-8.89-43.87-27.57-3.33-25.04,22.41-30.79,41.87-25.41-16.62-23.31-.67-55.85,29.65-42.14,17.41,7.86,31.54,30.68,34.29,49.15l16.76-11.45ZM89.45,77c1.5.77,6.31,3.69,7.58,2.76,6.3-10.41,3.68-18.21-.74-28.59-4.65-10.93-15.07-25.59-25.49-31.47-28.23-15.93-35.88,18.19-18.29,35.79,5.34,5.35,28.89,17.36,36.94,21.51ZM170.22,74.15c-12.65-24.13-50.39-24.79-61.3,1-15.25,36.05,31.75,66.63,56.77,40.3,9.7-10.21,10.89-29.17,4.53-41.3ZM18.21,61.36c-12.86,4.91-12.9,18.05-4.05,27,5.4,5.46,18.02,10.5,25.62,11.35,17.09,1.92,22.75-6.15,37-12.74,2.89-1.34,6.17-2.77,9.35-3.15-15.59-12.3-48.06-30.03-67.91-22.46ZM79.12,94.82l-14.5,6.99c-2.61,4.21,6.01,21.8,8.71,26.3,12.78,21.3,34.29,35.04,58.25,40.71,2.53-.25,10.72-13.6,9.49-15.03-29.54-6.09-56.19-28.51-61.96-58.97ZM47.68,117.78c-1.2-1.46-.96-.83-2.03,0-2.77,2.14-8.72,13.49-8.29,17.24,2.09,18.47,36.27,52.97,54.53,55.54,5.45.77,18.28-3.77,22.21-7.79-32.73-6.26-59.51-32.38-66.41-64.99Z"/>
      <path d="M163.81,78.07c-6.54-6.58-14.29,10.14-2.47,10.6,3.92-1.29,5.07-7.99,2.47-10.6Z"/>
      <path d="M135.83,92.56c5.49-16.87-17.32-10.8-5.04,1.12l5.04-1.12Z"/>
      <path d="M141.08,102.82c-.92,4,6.33,7.07,9.4,6.93,4.29-.19,9.76-3.92,10.58-8.41-2.24-3.25-5.09,1.83-7.25,2.72-5.31,2.18-7.82-.52-12.73-1.24Z"/>
    </g>
  </g>
</svg>