<?xml version="1.0" encoding="UTF-8"?>
<svg id="Layer_1" data-name="Layer 1" xmlns="http://www.w3.org/2000/svg" viewBox="0 0 844.88 789.32">
  <g>
    <path d="M543.61,198.47v-28.5c-3.89-4.02-12.23,1.95-13.78-5.22-.86-4.01-.96-29.64-.2-33.75.47-2.5,2.9-4.58,5.42-4.58l104.53.57c.83.67,2.08,1.55,2.5,2.5.96,2.17,1.03,31.88.3,35.25-1.38,6.39-10.03,2.89-14.78,3.72v107.5l73.49,66.52.55,3.43-38.75,43.36-5.27-.33-26-22.47-19.02,115c4.61-.18,7.98,1.26,7.02,6.46l-30.01,181.55h23.5c.29,0,3.02,2.83,3.3,3.71-1.4,17.32-7.15,34.35-10.01,51.58l-1.29,1.71h-24.5l14.01,41c1.44-.12,1.57-1.47,2.02-2.47,4.31-9.38,8.62-22.27,17.47-28.53,18.01-12.73,15.54,15.9,12.51,25.99,5.64-5.18,11.84-17.54,19.98-9l4.93-24.91c-11.35-2.63-19.83-13.73-22.95-24.56-.89-3.07-3.28-10.04.02-12.04,7.23-2.07,15.16,4.11,19.42,9.6,3.24,4.17,4.29,9.07,7.58,12.91-.37-8.12,5.67-21.92,4.82-29.23-.78-6.65-9.92-6.47-15.14-9.94-7.68-5.1-17.67-19.92-16.74-29.36.82-8.22,11.44-3.8,16-.91,7.93,5.02,12.82,15.02,16.81,23.24.66,1.35-.64,2.76,2.25,2.19l1.38-21.78c-3.58-5.97-9.19-10.25-12.56-16.53-4.22-7.87-8.17-21.9-1.82-29.2,4.53-2.21,10.22,2.76,12.97,6.04,11.29,13.42,7.96,32.32,7.04,48.47l7.48-11.01c3.92-3.91,7.44-7.97,12.47-10.53,10.25-5.21,24.43-6.74,17.21,9.21-3.7,8.19-13.62,16.64-21.82,20.18-4.29,1.85-13.74,2.94-15.8,6.2-3.83,6.04-4.2,25.29-6.54,32.95,8.18-11.16,31.27-28.8,45.35-20.86,6.61,3.73,1.58,10.29-2.32,14.41-6.65,7.02-19.01,12.49-28.56,13.44-8.02.79-14.19-3.23-17.39,6.61l-9.08,44.41c6.62-7.19,13.17-14.76,21.69-19.8,17.17-10.17,25.64-7.31,18.31,13.8,8.35-6.38,21.29-17.1,32.47-14.97,10.28,1.96-.56,17.86.53,18.96,5.54-2.04,10.42-5.71,16.19-7.3,8.17-2.24,19.81-4.26,16.33,8.34-.72,2.61-3.36,4.28-3.52,6.96,12.42-5.96,36.86-15.7,28,9,4.79-2.55,19.86-1.14,19,6.46-.95,8.4-7.03-.15-8.24-.73-6.17-2.95-18.21,3.33-19.74,2.24-2.46-3.31,6.78-16.22,4.96-17.97-13.2.43-23.95,8.82-35.47,14-.91-.7-1.48-1.28-1.58-2.51-.39-4.54,12.68-20.02,11.05-21.49-10.2.31-18.85,5.87-26.91,11.58-2.96,2.1-9.86,10.29-13.15,7.98-1.53-1.41-.96-2.93-.49-4.59.73-2.57,12.65-24.13,11.55-24.96-10.02.91-19.39,8.29-27.01,14.48-3.09,2.5-13.12,13.14-15,14.01-1.12.52-2.15.79-3.37.43-1.19-.39-1.5-1.34-1.67-2.46-.91-5.91,13.99-22.19,12.04-30.46-18.96,5.1-30.51,22.92-42.64,36.91-6.58,1.13.65-20.24-3.87-23.93-5.78.16-15.64,21.15-19.49,23.51-2.6,1.59-6.14.82-5.96-2.86.11-2.21,11.1-37.63,6.46-37.64-12.56,6.1-18.72,23.15-22.05,35.95-1.09,4.19.88,10.11-6.26,8.45-2.66-.62-2.7-2-3.86-4.18-8.06-15.13-10.03-34.02-19.82-48.21h-29.5c-.25,2.03.18,3.87.68,5.82,3.09,11.97,13.77,31.18,15.14,41.95.17,1.33-.05,4.91-1.49,5.27-1.76-.09-4.06.36-5.68-.2-4.58-1.57-18.52-50.53-22.67-57.84l-193.52.94-1.57.66-11.88,37.41c12.44-11.49,32.62-32.28,28,2,9.76-9.91,31.01-20.52,25,4,10.25-7.71,31.28-14.83,27,6,5.01-3.23,20.02-3.66,20.09,4.5.06,8.09-6.53-.41-9.58-.58-4.53-.26-14.23,5.29-16.57,3.65-3.1-2.18,3.7-12.54.12-15.14-2.97-2.16-14.56,4.42-17.56,6.58-2.05,1.47-9.79,10.9-12.38,6.87l3.87-21.87c-5.6,2.5-10.87,5.96-15.46,10.03-2.11,1.87-8.88,10.17-9.51,10.5-1.1.56-2.19.72-3.4.4-1.61-.66-1.65-1.76-1.58-3.29.33-7.43,6.95-16.63,4.45-24.64-3.07.07-23.59,22.55-28.01,25.99-2.59,2.01-8.96,6.86-10.33,1.32-1.07-4.34,17.62-48.61,14.85-51.29-3.62-.66-7.04.91-10.46,1.04-5,.18-18.3-1.39-21.63,1.37l-16.1,47.9c-2.04,3.69-11.39,4.11-12.6,0-.87-10.1-.36-20.55-3.21-30.3-2.44-1.72-11.75,7.97-13.5,9.99-2.41,2.77-10.38,15.84-11.49,16.5-1.51.89-3.36.48-4.99.51l4.99-41c-1.61-1.85-10.87,9.39-11.83,10.66-2.43,3.22-5.48,8.08-7.35,11.65-2.09,4.01-8.39,23.82-12.34,23.48-8.13-11.88-13.31-27.45-26.79-34.99-8.25-4.62-10.95-3.61-10.72,6.64.09,3.92,6.84,24.51-1.27,22.44-1.75-.45-9.16-10.73-11.19-12.9-8.39-8.95-18.19-19.05-28.84-25.16-2.82-1.61-10.28-5.71-13.15-5.86-2.48-.13-1.64,1.35-1.06,3.07,3.53,10.46,14.22,22.87,17.09,32.94.47,1.66,1.04,3.18-.49,4.59-1.38.84-2.67.58-4.05-.07-3.37-1.59-11.09-9.98-15.1-12.91-9.85-7.19-21.49-13.6-33.91-14.58-2.58,2.44,15.74,24.72,17.22,28.29,1.27,3.08.06,5.83-3.31,5.22-2.55-.46-9.99-6.87-13.25-8.69-8.93-4.99-19.34-10.31-29.67-10.82.17,5.14,14.81,20.57,13.99,23.44-1.19,4.17-12.51-2.6-15.55-3.39-2.81-.73-5.48-1.38-8.43-1.06.32,4.56,9.21,8.32,1.67,10.84-14.01-8.45-7.73-21.18,8.32-15.86,1.1-1.03-11.59-13.71-3.39-18.89s26.33,5.39,34.4,8.89c-28.4-40.64,22.68-20.65,37.99-6.99,1.12-1.32-19.07-27.25-7.29-30.82,10.91-3.31,38.85,19.55,46.29,27.82l-17.1-46.88c-16.95.57-39.26.98-46.67-17.46.89-10.08,28.07-5.2,33.48.15l9.31,7.69-11.43-26.57c-11.15-1.98-22.85-6.84-30-16-3.53-4.52-10.18-15.34-1.03-16.85,20.46-3.37,36.09,23.11,40.46,39.93l2.71-13.77c-.13-6.87,16.53-25.19,18.33-11.77,1.92,14.34-2.38,30.68-13.71,40.02l22.15,59.53,1.5.99c-2.65-25.66,22.17-11.51,30.98-.47l9.02,13.47-5.46-43.02c-11.18-1.81-20.19-6.94-26.76-16.24-7.22-10.22-9.97-20.99,7.29-17.29,7.45,1.6,12.96,9.46,17.93,14.56-.17-9.57-.94-19.18-3.99-28.25-11.61-5.54-23.94-16.65-28.21-29.04-7.23-20.96,17.17-9.57,23.04-.04l7.16,13.32c.52-12.85-2.32-25.03,1.96-37.54,3.5-10.21,19.33-23.96,21.03-5.94.73,7.72-1.42,15.23-4.96,22.01-1.82,3.5-12.02,14.98-12.02,15.98v15.5l5.98-8.52c6.15-6.23,14.99-15.5,24.55-14.55,9.94.99,1.59,15.57-2.01,20.08-7.19,9-15.56,12.91-26.53,15.69-1.68,11.75.96,24.41,2.03,36.29,1.8-1.08,1.71-4.53,2.81-6.67,4.42-8.6,13.44-17.92,23.66-18.38,11.33-.51,7.38,7,3.69,13.72-5.25,9.56-15.32,19.63-27.07,18.44-2.84,11.84,2.02,23.91,1.91,35.9,5.13-6.56,8.04-14.58,13.48-21.01,21.2-25.08,24.62,1.34,17.51,20,2.32.63,1.68-.54,2.29-1.26,5.9-6.9,17.67-23.52,25.92-10.44l3.78,18.7,12.01-40.99h-22.5l-11.3-53.29c.56-1.64,1.69-2.37,3.33-2.68,2.99-.56,21.42.02,22.48-1.03l-29.75-182.8.99-3.96,6.76-1.24-18.01-115.99c-1.73-.45-2,.72-3,1.49-4.87,3.75-23.24,22.66-26.73,23.36-.86.17-1.68.3-2.54,0l-37.47-43.59-.03-6.06L427.36,98.7c3.92-1.29,6.45,1.02,9.26,3.26,32.85,29.74,64.75,60.72,97.98,90.02,2.43,2.14,6.02,5.33,9.01,6.49ZM429.24,110.54l-258.19,233.93,27.19,31.93c1.29.22,17.08-14.19,19.4-16.39,61.63-58.34,125.17-114.82,187.97-172.03,3.23-2.94,21.27-21.55,23.49-21.55l232.49,209.59,26.56-29.56.02-2.02L429.24,110.54ZM632.61,136.47h-93v22h93v-22ZM617.61,168.47h-64v21h44.5c.39,0,1.51,1.3,2.5,1.01,1.47,2.13-5.11,3.99-6.5,3.99h-40.5v14.5c15.49,13.11,29.82,27.54,44.99,41.01,4.91,4.36,10.98,10.13,16.01,13.99,1.01.78,1.26,1.93,3.01,1.49v-50h-31.5c-.3,0-1.88-2.03-2.5-2.51l1.5-2.49h32.5v-42ZM403.61,206.47h33.5l1.49,2.49-1.49,1.51h-38l-40.5,37h141l-69.5-64.98-26.5,23.98ZM567.61,308.47l-62.02-56.48-150.43-.47c-2.91.53-27.3,22.56-31.56,26.44-6.5,5.91-13.16,11.93-18.99,18.51h36.5c.53,0,2.07,2.19,1.5,2.99l-43.29,1.21-32.68,29.3c1.08,1.53,1.61,1.51,3.36,1.42,20.6-1.07,51.08-3.14,71.17-.97,2.42.26,4.83,1.13,2.48,3.58-26.93,2.88-54.26,1.22-81.32.68-2.39.54-20.3,16.86-23.2,19.81-.95.97-1.91,1.28-1.51,2.98l383.99-1.01-49.27-44.25c-6.21-.18-49.16,1.44-50.72-.75-.43-.93.89-2.99,1.5-2.99h44.5ZM620.61,366.47H238.61l7,46h70.5c.35,0,1.48,1.32,2.5,1.01.29.38-2.3,2.99-2.5,2.99h-69.5l4.15,29.35,1.49,1.51,80.34,2.64c-1.2,1.84-2.66,1.39-4.43,1.55-25.35,2.33-51.1.22-76.55.96l5.61,29.05,343.89-.05c1.32-.04,1.84-.48,2.3-1.7,2.28-6.09,1.92-17.54,3.19-24.31h-88.5c-.53,0-2.07-2.19-1.5-2.99l90.89-2.12,6.06-41.85-74.51-1.99-.44-3.06h75.5l1.31-1.69,5.19-35.31ZM607.61,491.47H250.61l2.05,17.95c28.14.59,56.43-1.02,84.5,1.01,1.79.13,3.23-.27,4.43,1.55,0,2.42-14.03,1.38-16.47,1.51-22.12,1.21-44.79,1.58-67.07,1.05-1.7-.04-2.93-.32-4.43-1.06l6,36.01h57.98c-.44,4.96-9.54,2.72-13.48,3-1.98.14-3.84.94-5.97,1.03-12.46.53-25.08-.48-37.54-.04l7.15,44.86c24.59,1.01,49.5-1.69,73.86,2.15-3.09,3.67-10.83,1.67-15.54,1.95-2.37.14-4.56,1-6.92,1.08-16.8.61-33.75-.54-50.55-.05l2,20h55.5c2.39,1.72,1.83,3.48-1.01,3.99l-53.49,1.02,7.14,40.86,300.2.18,7.66-42.04h-42.5c-.39,0-1.51-1.3-2.5-1.01l1.5-2.99h44.5l3-22h-70.5c-.39,0-1.51-1.3-2.5-1.01-2.19-3.08,10.24-3.83,12.51-3.98,20.47-1.31,41.11,1.09,61.49,1l4.51-35.02-38.01-1-2.5-2.99,41.89-1.11,5.1-30.89h-84v-4h85l4-31ZM666.6,638.46c-1.23-6.42-.81-12.89-3.49-19-.65-1.47-7.83-11.95-9.5-9.99-.34,5.25,0,9.74,1.81,14.68.61,1.68,9.05,16.64,11.18,14.31ZM203.6,614.47c-10.52,3.88-12.66,20.06-11.98,29.99,8.37-7.92,13.38-18.23,11.98-29.99ZM703.61,638.48c-11.92,1.03-23.59,11.87-26.99,22.99,11.69-3.02,22.69-11.63,26.99-22.99ZM182.61,666.46c-3.23-10.24-8.7-23.81-20.99-24.98-.63,4.89,17.96,27.51,20.99,24.98ZM111.61,662.46c-4.41-10.18-14.19-19.53-25.99-18.98,4.43,10.06,15.1,17.55,25.99,18.98ZM656.61,672.46c-3.96-10.21-11.18-21.45-21.99-24.99-2.74,7.14,17.06,28.66,21.99,24.99ZM220.6,653.47c-10.66,2.07-18.93,11.38-22.99,20.98,10.38-2.13,20.06-10.79,22.99-20.98ZM131.62,682.47c7.67-6.57,8.33-18.48,7.98-28-7.64,7.08-8.55,18.18-7.98,28ZM605.61,680.47H253.61l3.01,16.99,99.54-.04,5.45,1.06c.57.8-.96,2.99-1.5,2.99h-102.5l3.01,15.99c8.16-.13,16.36.19,24.53.05,22.8-.4,46.07-.96,68.91-1.09,80.68-.44,161.38.42,242.06.06,3.79-.72,3.92-11.78,5.49-15.01h-188c-.44-2.79.59-4.11,3.45-4.05l184.97.11,3.58-17.06ZM705.61,688.48c-10.01-.93-19.52,3.08-27.01,9.48-.97.82-7.11,6.51-5.98,7.51,12.55-.1,26.47-6,32.99-16.98ZM119.6,700.46c.47-1.92-.71-1.92-1.68-2.81-6.8-6.24-17.22-8.92-26.31-8.18-2.37,2.07,10.36,8.28,11.72,8.77,5.4,1.94,10.51,2.68,16.27,2.22ZM179.25,701.82c-1.8-1.75-12.81-9.08-14.64-7.35,1.64,7.7,12.61,19.61,20.49,20.02,1.35.07,1.95.1,1.48-1.49-.73-2.48-5.38-9.27-7.33-11.17ZM649.6,720.46c-2.02-8.9-6.72-19.09-15.99-21.99-1.64,1.8,5.02,12.87,6.58,14.91,1.14,1.5,7.56,8.77,9.41,7.08ZM223.6,699.47c-8.58,1.57-18.67,9.91-18.99,18.99,5.68,2.46,20.53-17.47,18.99-18.99Z"/>
    <path d="M787.27,200.81c1.94,1.94,3.38,5.95,4.49,8.5,12.64-2.31,28.12,12.24,17.15,22.96l-129.83.22c-19.44-7.09,1.55-26.96,15.49-23.06.58-11.23,13.41-15.28,22.98-11.98,5.53-19.54,31.58-25.49,45.59-11.02,2.25,2.32,5.39,9.92,6.46,10.6,1.6,1.02,11.1-2.77,17.66,3.77ZM806.61,225.47c-1.22-6.48-7.23-9.66-13.51-9.05-2.88.28-6.11,3.22-8.54,1.61s3.61-10.35-4.37-13.62c-8.71-3.58-12.04,4.96-15.05,4.07-2.52-2.16-1.16-5.74-1.99-9.03-3.7-14.54-24.85-18.9-34.93-7.87-5.98,6.54-3.44,13.7-4.74,15.75-2.28,3.59-6.79-2.99-9.57-3.63-5.69-1.31-13.37.37-13.33,7.26.01,2.08,2.28,5.56.09,7.09s-5.72-1.29-8.53-1.6c-7.12-.79-12.63,1.99-14.52,9.04h129Z"/>
    <path d="M506.61,749.97c.62-2.22,4.33-2.76,6.42-2.48,7.73,1.05,35.33,33.96,32.58,35.97l-7-.49c-5.41-6.46-18.09-26.96-25.52-29.48-2.59-.88-.77,1.13-.73,1.72.13,2.18.1,4.49.38,6.64.55,4.29,3.95,14.47,3.8,17.19-.09,1.64-1.23,2.68-2.63,3.31-5.81.18-7.31-6.03-10.31-9.35-4.81-5.32-9.97-10.31-16.48-13.52-2.42,6.85,3.2,14.21,3.47,20.63.06,1.36-.06,2.87-1.57,3.32-3.18.94-17.62-12.99-23.39-11.94-1.61,1.53,7.78,11.2,5.05,13.53l-2.11,1.07c-5.3-3.09-13.45-13.28-7.47-18.62,6.64-5.93,19.13,5.45,20.52,4.01-6.94-29.03,12.61-16.4,25.01-4.99v-16.5Z"/>
    <path d="M559.61,748.47c5.1-.86,5.99,3.01,7.85,6.64,4.21,8.23,6.09,18.17,10.71,26.31,1.1,4.29-2.72,2.94-5.07,1.05-3.81-3.06-4.58-11.47-6.48-16.52-2.21-5.87-4.93-11.56-7.01-17.48Z"/>
    <path d="M302.6,747.47c1.08,1-8.22,25.03-9.53,27.96-.71,1.6-2.96,8.5-4.95,8.03-.68-.75-1.97-1.44-2.12-2.46-.27-1.75,11.07-32.15,12.59-33.05,1.25-.74,2.67-.5,4.01-.48Z"/>
    <path d="M88.34,223.69c1.96-.4,4.2-.74,5.84.71,3.37,4.65-8.17,8.94-11.31,10.84-2.58,1.56-5.64,6.41-9.33,3.8-6.01-4.25,11.34-14.63,14.8-15.34Z"/>
    <path d="M62.32,246.65c3.5-1.04,5.84-.05,4.85,3.83-.22.88-8.85,14.9-9.51,15.52-3.37,3.22-7.73.89-6.64-3.55.56-2.27,9.29-15.22,11.3-15.81Z"/>
    <path d="M122.39,212.7c4.68-.16,7.46,4.07,3.64,6.7-1.63,1.12-19.76,4.89-20.98,3.14-.88-2.2-.97-4.55,1.14-5.99.91-.63,14.58-3.79,16.21-3.84Z"/>
    <path d="M781.39,717.74c3.9-.42,7.98-.41,6.1,5.1-.96,2.8-22.78,6.16-23.73.99-1.03-5.63,7.32-4.02,10.23-4.48,2.44-.39,5.04-1.36,7.4-1.61Z"/>
    <path d="M54.46,312.63c.49,3.88,10.39,18.16,8.08,20.77-.81.91-4.52.65-5.85-.46-3.44-2.88-14.48-23.65-2.23-20.31Z"/>
    <path d="M811.31,699.58c2.91-.76,4.69,2.4,4.15,5.15-.61,3.12-12.66,15.01-16.87,12.25l-1.63-3.02c0-1.17,13.34-14.12,14.35-14.38Z"/>
    <path d="M817.73,690.35c-2.27-1.42,1.08-8.53,1.58-10.68.8-3.46.61-12.96,5.66-12.04,6.18,1.13.73,27.7-7.24,22.72Z"/>
    <path d="M52.61,298.97c-.72,2.56-5.53,3.94-7.25.26-.94-2-.09-17.01.75-18.76,1.43-2.94,6.5-2.24,6.5-.5v19Z"/>
    <path d="M85.26,351.81c4.08,4,1.43,7.78-3.68,6.23-2.69-.82-13.13-9.25-14.25-11.87-1.21-2.82,1.5-5.43,4.57-4.55.81.23,12.32,9.18,13.36,10.2Z"/>
    <path d="M814.23,635.54c5.99-2.11,12.26,16.25,11.26,19.25-.34,1.03-1.25,1.54-2.16,1.97-2.2,1.01-3.9-.74-4.94-2.57-.98-1.72-6.01-14.94-5.82-16.19.17-1.12.48-2.07,1.67-2.46Z"/>
    <path d="M99.27,359.69c1.71-.14,17.33,6.18,17.88,8.69,1.85,8.42-17.57.34-20.1-1.85-2.94-2.54-1.32-6.55,2.22-6.84Z"/>
    <path d="M793.25,609.63c2.88-.53,19.45,12.72,14.43,17.41-4.31,3.12-11.87-9.86-16.14-11-2-1.85-.64-5.99,1.71-6.41Z"/>
    <path d="M731.86,723.22c-2.58-2.49-.38-5.71,3.19-5.8,1.26-.03,14.58,1.88,15.85,2.25,3.12.9,3.67,4.86.7,6.29-2.93,1.41-17.52-.59-19.74-2.74Z"/>
    <path d="M421.4,507.76c58.89-6.02,99.77,57.69,70.01,109.01-24.57,42.38-84.05,47.37-115.83,10.22-37.26-43.56-11.71-113.35,45.82-119.23ZM421.4,515.76c-82.95,8.53-67.21,142.07,19.46,127.46,78.28-13.2,64.45-136.08-19.46-127.46Z"/>
    <path d="M558.11,642.47c1.01.16,3.65,1.65,2.5,2.98-.96-.26-2.11,1.02-2.5,1.02h-58c-3.37,0-2.66-4-1-4h59Z"/>
    <path d="M354.11,642.47l1.5,2.99c-.98-.29-2.1,1.01-2.5,1.01h-56l-1.49-1.51,1.49-2.49h57Z"/>
    <path d="M284.86,585.2c-3.53-3.2-1.95-9.52,3.24-9.83,10.85-.65,3.94,16.35-3.24,9.83Z"/>
    <path d="M566.83,578.68l4.11-2.03c8.58,2.63,4.79,14.94-3.44,9.41l-.68-7.38Z"/>
    <path d="M361.27,392.63l134.88-.21c8.72.92,2.52,17.15.48,22.57-23.09,61.38-116.9,58.31-135.32-3.72-1.13-3.79-4.78-17.04-.03-18.64ZM388.96,428.12c-6.51-6.59-11.09-15.85-13.83-24.67l-6.52-.99c-.04,9.93,6.09,20.61,12.49,28.02,20.57,23.8,56.26,27.66,82.81,11.79,13.41-8.02,25.88-23.91,26.7-39.81l-5.88.13c-9.58,42.33-65.83,55.88-95.78,25.52Z"/>
    <path d="M269.09,386.87c6.97-.3,7.62,10.87,1.96,11.63-9.12,1.21-8.05-11.36-1.96-11.63Z"/>
    <path d="M589.26,387.68c9.34-.83,5.06,17.28-3.17,9.81-4.1-3.72-1.16-9.42,3.17-9.81Z"/>
    <path d="M272.86,461.71c4.43-4.36,13.04,2.11,8.84,7.35-4.31,5.39-13.5-2.77-8.84-7.35Z"/>
    <path d="M577.32,462.64c8.62-2.55,8.62,12.21,0,9.66-3.84-1.13-3.84-8.53,0-9.66Z"/>
    <path d="M428.31,135.57c1.15-.3,2.03,0,2.85.84,11.99,12.37,26.05,22.67,38.47,34.55,2.42,2.31,7.31,6.57,9,9,.95,1.35,1.8,1.53,0,3.03l-4.57-.46-44.42-40.68-2,.07c-7.32,6.98-14.53,14.27-22.01,21.06-62.18,56.4-124.04,113.5-187,169-3.17,2.79-11.06,10.49-14.01,12-1.77.9-1.9.18-3.01-1.03l226.7-207.38Z"/>
    <path d="M501.61,203.47l4.55.95c43.4,41.26,90.23,79.14,133.46,120.54,1.78,1.71,12.27,11.64,11.98,13l-3.28,1.32-145.26-131.77-1.45-4.04Z"/>
    <path d="M370.11,276.47h120c5.65,0-.28,19.27-1.48,22.52-19.97,54-99.33,53.81-118.06-.98-1.13-3.3-5.93-21.54-.46-21.54ZM382.51,287.57l-5.91-.1c9,52.67,83.83,59.39,103.49,9.98,1.7-4.27,5.79-12.2-2.35-9.85-14.45,47.41-81.74,47.85-95.23-.04Z"/>
    <path d="M571.11,337.47c3.88.63,2.27,4,1,4h-69c-3.37,0-2.66-4-1-4h69Z"/>
    <path d="M423.4,526.76c67.02-7.13,80.8,92.24,17.26,105.26-71.55,14.66-88.1-97.72-17.26-105.26Z"/>
  </g>
  <g>
    <path d="M738.77,450.92c2.75-18.47,16.88-41.28,34.29-49.15,30.33-13.7,46.28,18.84,29.65,42.14,19.46-5.38,45.2.37,41.87,25.41-2.48,18.68-27.46,27.22-43.87,27.57l10.84,17.63c4.96,10.98,7.47,23.77,6.14,35.84-.39,3.55-3.16,7.42-2.99,9.91.3,4.54,13.23,28.07,10.98,30.55l-26.48-11.64c-41.93,29.02-110.43-4.76-107.87-57.33-40.02-14.3-38.04-69.14,1.5-82.46-2.03-6.8-4.58-15.13-9.62-20.34-6.79-7.02-5.69-1.89-11.11-1.31-9.92,1.06-11.39-13.88-.77-14.83,15.07-1.34,28.61,21.8,30.57,34.92l11.23.14c3.14-.72,4.28-28.65-.82-33.03-2.08-1.79-5.55-.49-7.84-1.9-4.98-3.07-2.15-17.88,10.03-11.28s12.18,36.1,7.51,47.71l16.76,11.45ZM792.37,445.57c17.59-17.59,9.94-51.72-18.29-35.79-10.42,5.88-20.84,20.54-25.49,31.47s-7.04,18.18-.74,28.59c1.27.93,6.08-1.99,7.58-2.76,8.05-4.15,31.6-16.16,36.94-21.51ZM679.19,505.53c25.02,26.33,72.02-4.24,56.77-40.3-10.91-25.79-48.65-25.13-61.3-1-6.36,12.13-5.17,31.09,4.53,41.3ZM758.76,473.9c3.18.38,6.46,1.81,9.35,3.15,14.25,6.6,19.91,14.67,37,12.74,7.59-.85,20.21-5.89,25.62-11.35,8.85-8.95,8.81-22.09-4.05-27-19.86-7.58-52.32,10.15-67.91,22.46ZM703.81,543.87c-1.23,1.43,6.96,14.78,9.49,15.03,23.96-5.67,45.48-19.41,58.25-40.71,2.7-4.5,11.32-22.09,8.71-26.3l-14.5-6.99c-5.77,30.46-32.42,52.89-61.96,58.97ZM730.79,572.86c3.94,4.02,16.76,8.56,22.21,7.79,18.26-2.57,52.43-37.07,54.53-55.54.42-3.75-5.52-15.1-8.29-17.24-1.08-.83-.83-1.46-2.03,0-6.9,32.6-33.68,58.73-66.41,64.99Z"/>
    <path d="M681.07,468.16c6.54-6.58,14.29,10.14,2.47,10.6-3.92-1.29-5.07-7.99-2.47-10.6Z"/>
    <path d="M709.06,482.65c-5.49-16.87,17.32-10.8,5.04,1.12l-5.04-1.12Z"/>
    <path d="M703.81,492.9c.92,4-6.33,7.07-9.4,6.93-4.29-.19-9.76-3.92-10.58-8.41,2.24-3.25,5.09,1.83,7.25,2.72,5.31,2.18,7.82-.52,12.73-1.24Z"/>
  </g>
  <g>
    <path d="M203.65,49.38c-4.67-11.61-4.7-41.09,7.51-47.71,12.18-6.6,15,8.2,10.03,11.28-2.29,1.42-5.76.12-7.84,1.9-5.1,4.39-3.96,32.31-.82,33.03l11.23-.14c1.96-13.12,15.5-36.26,30.57-34.92,10.62.95,9.15,15.89-.77,14.83-5.42-.58-4.33-5.71-11.11,1.31-5.04,5.21-7.59,13.54-9.62,20.34,39.54,13.32,41.52,68.17,1.5,82.46,2.56,52.57-65.94,86.35-107.87,57.33l-26.48,11.64c-2.25-2.48,10.68-26.01,10.98-30.55.16-2.49-2.6-6.37-2.99-9.91-1.33-12.07,1.18-24.86,6.14-35.84l10.84-17.63c-16.41-.35-41.38-8.89-43.87-27.57-3.33-25.04,22.41-30.79,41.87-25.41-16.62-23.31-.67-55.85,29.65-42.14,17.41,7.86,31.54,30.68,34.29,49.15l16.76-11.45ZM170.24,77c1.5.77,6.31,3.69,7.58,2.76,6.3-10.41,3.68-18.21-.74-28.59-4.65-10.93-15.07-25.59-25.49-31.47-28.23-15.93-35.88,18.19-18.29,35.79,5.34,5.35,28.89,17.36,36.94,21.51ZM251.01,74.15c-12.65-24.13-50.39-24.79-61.3,1-15.25,36.05,31.75,66.63,56.77,40.3,9.7-10.21,10.89-29.17,4.53-41.3ZM98.99,61.36c-12.86,4.91-12.9,18.05-4.05,27,5.4,5.46,18.02,10.5,25.62,11.35,17.09,1.92,22.75-6.15,37-12.74,2.89-1.34,6.17-2.77,9.35-3.15-15.59-12.3-48.06-30.03-67.91-22.46ZM159.9,94.82l-14.5,6.99c-2.61,4.21,6.01,21.8,8.71,26.3,12.78,21.3,34.29,35.04,58.25,40.71,2.53-.25,10.72-13.6,9.49-15.03-29.54-6.09-56.19-28.51-61.96-58.97ZM128.47,117.78c-1.2-1.46-.96-.83-2.03,0-2.77,2.14-8.72,13.49-8.29,17.24,2.09,18.47,36.27,52.97,54.53,55.54,5.45.77,18.28-3.77,22.21-7.79-32.73-6.26-59.51-32.38-66.41-64.99Z"/>
    <path d="M244.59,78.07c-6.54-6.58-14.29,10.14-2.47,10.6,3.92-1.29,5.07-7.99,2.47-10.6Z"/>
    <path d="M216.61,92.56c5.49-16.87-17.32-10.8-5.04,1.12l5.04-1.12Z"/>
    <path d="M221.86,102.82c-.92,4,6.33,7.07,9.4,6.93,4.29-.19,9.76-3.92,10.58-8.41-2.24-3.25-5.09,1.83-7.25,2.72-5.31,2.18-7.82-.52-12.73-1.24Z"/>
  </g>
  <g>
    <path d="M122.87,470.91c-4.67-11.61-4.7-41.09,7.51-47.71,12.18-6.6,15,8.2,10.03,11.28-2.29,1.42-5.76.12-7.84,1.9-5.1,4.39-3.96,32.31-.82,33.03l11.23-.14c1.96-13.12,15.5-36.26,30.57-34.92,10.62.95,9.15,15.89-.77,14.83-5.42-.58-4.33-5.71-11.11,1.31-5.04,5.21-7.59,13.54-9.62,20.34,39.54,13.32,41.52,68.17,1.5,82.46,2.56,52.57-65.94,86.35-107.87,57.33l-26.48,11.64c-2.25-2.48,10.68-26.01,10.98-30.55.16-2.49-2.6-6.37-2.99-9.91-1.33-12.07,1.18-24.86,6.14-35.84l10.84-17.63c-16.41-.35-41.38-8.89-43.87-27.57-3.33-25.04,22.41-30.79,41.87-25.41-16.62-23.31-.67-55.85,29.65-42.14,17.41,7.86,31.54,30.68,34.29,49.15l16.76-11.45ZM89.45,498.53c1.5.77,6.31,3.69,7.58,2.76,6.3-10.41,3.68-18.21-.74-28.59-4.65-10.93-15.07-25.59-25.49-31.47-28.23-15.93-35.88,18.19-18.29,35.79,5.34,5.35,28.89,17.36,36.94,21.51ZM170.22,495.68c-12.65-24.13-50.39-24.79-61.3,1-15.25,36.05,31.75,66.63,56.77,40.3,9.7-10.21,10.89-29.17,4.53-41.3ZM18.21,482.89c-12.86,4.91-12.9,18.05-4.05,27,5.4,5.46,18.02,10.5,25.62,11.35,17.09,1.92,22.75-6.15,37-12.74,2.89-1.34,6.17-2.77,9.35-3.15-15.59-12.3-48.06-30.03-67.91-22.46ZM79.12,516.34l-14.5,6.99c-2.61,4.21,6.01,21.8,8.71,26.3,12.78,21.3,34.29,35.04,58.25,40.71,2.53-.25,10.72-13.6,9.49-15.03-29.54-6.09-56.19-28.51-61.96-58.97ZM47.68,539.31c-1.2-1.46-.96-.83-2.03,0-2.77,2.14-8.72,13.49-8.29,17.24,2.09,18.47,36.27,52.97,54.53,55.54,5.45.77,18.28-3.77,22.21-7.79-32.73-6.26-59.51-32.38-66.41-64.99Z"/>
    <path d="M163.81,499.6c-6.54-6.58-14.29,10.14-2.47,10.6,3.92-1.29,5.07-7.99,2.47-10.6Z"/>
    <path d="M135.83,514.09c5.49-16.87-17.32-10.8-5.04,1.12l5.04-1.12Z"/>
    <path d="M141.08,524.35c-.92,4,6.33,7.07,9.4,6.93,4.29-.19,9.76-3.92,10.58-8.41-2.24-3.25-5.09,1.83-7.25,2.72-5.31,2.18-7.82-.52-12.73-1.24Z"/>
  </g>
</svg>