<svg width="183" height="201" viewBox="0 0 183 201" fill="none" xmlns="http://www.w3.org/2000/svg">
<g clip-path="url(#clip0_2034_3111)">
<path d="M122.871 49.3803C118.201 37.7703 118.171 8.29029 130.381 1.67029C142.561 -4.92971 145.381 9.87029 140.411 12.9503C138.121 14.3703 134.651 13.0703 132.571 14.8503C127.471 19.2403 128.611 47.1603 131.751 47.8803L142.981 47.7403C144.941 34.6203 158.481 11.4803 173.551 12.8203C184.171 13.7703 182.701 28.7103 172.781 27.6503C167.361 27.0703 168.451 21.9403 161.671 28.9603C156.631 34.1703 154.081 42.5003 152.051 49.3003C191.591 62.6203 193.571 117.47 153.551 131.76C156.111 184.33 87.6109 218.11 45.6809 189.09L19.2009 200.73C16.9509 198.25 29.8809 174.72 30.1809 170.18C30.3409 167.69 27.5809 163.81 27.1909 160.27C25.8609 148.2 28.3709 135.41 33.3309 124.43L44.1709 106.8C27.7609 106.45 2.79092 97.9103 0.300919 79.2303C-3.02908 54.1903 22.7109 48.4403 42.1709 53.8203C25.5509 30.5103 41.5009 -2.02971 71.8209 11.6803C89.2309 19.5403 103.361 42.3603 106.111 60.8303L122.871 49.3803ZM89.4509 77.0003C90.9509 77.7703 95.7609 80.6903 97.0309 79.7603C103.331 69.3503 100.711 61.5503 96.2909 51.1703C91.6409 40.2403 81.2209 25.5803 70.8009 19.7003C42.5709 3.77029 34.9209 37.8903 52.5109 55.4903C57.8509 60.8403 81.4009 72.8503 89.4509 77.0003ZM170.221 74.1503C157.571 50.0203 119.831 49.3603 108.921 75.1503C93.6709 111.2 140.671 141.78 165.691 115.45C175.391 105.24 176.581 86.2803 170.221 74.1503ZM18.2109 61.3603C5.35092 66.2703 5.31092 79.4103 14.1609 88.3603C19.5609 93.8203 32.1809 98.8603 39.7809 99.7103C56.8709 101.63 62.5309 93.5603 76.7809 86.9703C79.6709 85.6303 82.9509 84.2003 86.1309 83.8203C70.5409 71.5203 38.0709 53.7903 18.2209 61.3603H18.2109ZM79.1209 94.8203L64.6209 101.81C62.0109 106.02 70.6309 123.61 73.3309 128.11C86.1109 149.41 107.621 163.15 131.581 168.82C134.111 168.57 142.301 155.22 141.071 153.79C111.531 147.7 84.8809 125.28 79.1109 94.8203H79.1209ZM47.6809 117.78C46.4809 116.32 46.7209 116.95 45.6509 117.78C42.8809 119.92 36.9309 131.27 37.3609 135.02C39.4509 153.49 73.6309 187.99 91.8909 190.56C97.3409 191.33 110.171 186.79 114.101 182.77C81.3709 176.51 54.5909 150.39 47.6909 117.78H47.6809Z" fill="white"/>
<path d="M163.811 78.0699C157.271 71.4899 149.521 88.2099 161.341 88.6699C165.261 87.3799 166.411 80.6799 163.811 78.0699Z" fill="white"/>
<path d="M135.83 92.5598C141.32 75.6898 118.51 81.7598 130.79 93.6798L135.83 92.5598Z" fill="white"/>
<path d="M141.08 102.82C140.16 106.82 147.41 109.89 150.48 109.75C154.77 109.56 160.24 105.83 161.06 101.34C158.82 98.0904 155.97 103.17 153.81 104.06C148.5 106.24 145.99 103.54 141.08 102.82Z" fill="white"/>
</g>
<defs>
<clipPath id="clip0_2034_3111">
<rect width="182.64" height="200.75" fill="white"/>
</clipPath>
</defs>
</svg>
